<svg class="icon" style="vertical-align: middle;fill: currentColor;overflow: hidden;" viewBox="0 0 1024 1024" version="1.1" xmlns="http://www.w3.org/2000/svg" p-id="1764"><path d="M511.800078 512m-435.030066 0a435.030066 435.030066 0 1 0 870.060132 0 435.030066 435.030066 0 1 0-870.060132 0Z" fill="#E8E8E8" p-id="1765"></path><path d="M974.019524 259.298711L767.700117 51.37993c-12.795002-12.795002-27.189379-19.192503-44.782507-19.192503s-33.58688 6.397501-44.782507 17.593127l-97.561889 99.161266 295.88442 297.483795 97.56189-97.56189c23.990629-25.590004 23.990629-65.574385 0-89.565014z" fill="#F2385A" p-id="1766"></path><path d="M38.385006 915.042561l71.971886 71.971886 219.114408-15.993752-268.695041-271.893791z" fill="#FAD97F" p-id="1767"></path><path d="M615.759469 230.509957l-57.577509-57.577509L68.773135 663.940648l57.577509 57.577509zM148.741898 743.90941l57.577508 57.577509 487.80945-492.607575-57.577509-57.577509zM774.097618 388.848106l-57.577509-57.577509-487.809449 492.607576 57.577509 57.577508zM794.889496 411.23936l-487.809449 492.607575 57.577509 57.577509 487.809449-492.607576z" fill="#9DE8F7" p-id="1768"></path><path d="M996.410777 236.907458l-206.319406-207.918782C772.498243 11.395549 748.507614 0.199922 722.91761 0.199922S673.336978 9.796173 655.74385 27.389301L31.987505 657.543147 0 982.216322l39.984381 41.583756 332.670051-23.990629 623.756345-628.55447c36.785631-36.785631 36.785631-97.56189 0-134.347521z m-438.228817-63.97501l57.577509 57.577509L126.350644 721.518157l-57.577509-57.577509L558.18196 172.932448z m-351.862554 628.554471l-57.577508-57.577509 487.809449-492.607575 57.577509 57.577509-487.80945 492.607575z m510.200703-470.216322l57.577509 57.577509-487.809449 492.607575-57.577509-57.577508 487.809449-492.607576zM307.080047 903.846935l487.809449-492.607575 57.577509 57.577508-487.809449 492.607576-57.577509-57.577509z m-196.723155 83.167512l-71.971886-71.971886 22.391253-215.915657 268.695041 271.893791-219.114408 15.993752z m863.662632-638.150722l-97.56189 97.56189-295.88442-297.483795 97.561889-99.161266c11.195627-11.195627 27.189379-17.593128 44.782507-17.593127 17.593128 0 31.987505 6.397501 44.782507 19.192503l206.319407 207.918781c23.990629 23.990629 23.990629 63.97501 0 89.565014z" fill="" p-id="1769"></path></svg>